<svg width="20" height="20" viewBox="0 0 20 20" fill="none" xmlns="http://www.w3.org/2000/svg">
<circle cx="10" cy="10" r="8" fill="currentColor"/>
<path d="M12.83 8.34L11.17 10L12.83 11.66C12.97 11.8 12.97 12.03 12.83 12.17L12.17 12.83C12.03 12.97 11.8 12.97 11.66 12.83L10 11.17L8.34 12.83C8.2 12.97 7.97 12.97 7.83 12.83L7.17 12.17C7.03 12.03 7.03 11.8 7.17 11.66L8.83 10L7.17 8.34C7.03 8.2 7.03 7.97 7.17 7.83L7.83 7.17C7.97 7.03 8.2 7.03 8.34 7.17L10 8.83L11.66 7.17C11.8 7.03 12.03 7.03 12.17 7.17L12.83 7.83C12.97 7.97 12.97 8.2 12.83 8.34Z" fill="white"/>
</svg>
