<svg width="20" height="20" viewBox="0 0 20 20" fill="none" xmlns="http://www.w3.org/2000/svg">
<circle cx="10" cy="10" r="8" fill="currentColor"/>
<path d="M7.5 7.5C7.5 6.11929 8.61929 5 10 5C11.3807 5 12.25 6.11929 12.25 7.5V8.94C12.25 9.14 12.17 9.33 12.03 9.47L10.72 10.78V11.25C10.72 11.66 10.38 12 9.97 12C9.56 12 9.22 11.66 9.22 11.25V10.47C9.22 10.27 9.3 10.08 9.44 9.94L11 8.38V7.5C11 6.95 10.55 6.5 10 6.5C9.45 6.5 9 6.95 9 7.5V8C9 8.41 8.66 8.75 8.25 8.75C7.84 8.75 7.5 8.41 7.5 8V7.5Z" fill="white"/>
<circle cx="10" cy="14.25" r="1" fill="white"/>
</svg>
